<?xml version="1.0" encoding="UTF-8"?>
<svg width="20px" height="20px" viewBox="0 0 20 20" version="1.1" xmlns="http://www.w3.org/2000/svg" xmlns:xlink="http://www.w3.org/1999/xlink">
    <!-- Generator: sketchtool 48.2 (47327) - http://www.bohemiancoding.com/sketch -->
    <title>7D687933-CC33-4860-A532-F0468F272093</title>
    <desc>Created with sketchtool.</desc>
    <defs></defs>
    <g id="free" stroke="none" stroke-width="1" fill="none" fill-rule="evenodd" transform="translate(-263.000000, -306.000000)">
        <path d="M273.5,311 L273.5,316.25 L278,318.92 L277.25,320.15 L272,317 L272,311 L273.5,311 Z M273,306 C278.522,306 283,310.477 283,316 C283,321.522 278.522,326 273,326 C267.47,326 263,321.5 263,316 C263,310.477 267.477,306 273,306 Z M273,324 C277.418,324 281,320.418 281,316 C281,311.582 277.418,308 273,308 C268.582,308 265,311.582 265,316 C265,320.418 268.582,324 273,324 Z" id="clock" fill="#FFFFFF"></path>
    </g>
</svg>