<?xml version="1.0" encoding="UTF-8"?>
<svg width="18px" height="23px" viewBox="0 0 18 23" version="1.1" xmlns="http://www.w3.org/2000/svg" xmlns:xlink="http://www.w3.org/1999/xlink">
    <!-- Generator: sketchtool 48.2 (47327) - http://www.bohemiancoding.com/sketch -->
    <title>BAC28576-4E0E-4841-BCB0-9AB6D04F3A35</title>
    <desc>Created with sketchtool.</desc>
    <defs></defs>
    <g id="expand-meeting" stroke="none" stroke-width="1" fill="none" fill-rule="evenodd" transform="translate(-41.000000, -488.000000)">
        <path d="M57,507 L57,511 L59,511 L59,503 L57,503 M53,503 L53,506 L41,506 L41,508 L53,508 L53,511 L57,507 M49,492 L49,495.69 L52.19,497.53 L52.94,496.23 L50.5,494.82 L50.5,492 M50,490.15 C52.67,490.15 54.85,492.32 54.85,495 C54.85,497.68 52.67,499.85 50,499.85 C47.321,499.85 45.15,497.679 45.15,495 C45.15,492.321 47.321,490.15 50,490.15 M50,488 C46.14,488 43,491.14 43,495 C43,498.866 46.134,502 50,502 C53.86,502 57,498.87 57,495 C57,491.14 53.86,488 50,488" id="End-clock" fill="#FFFFFF"></path>
    </g>
</svg>