<?xml version="1.0" encoding="UTF-8"?>
<svg width="18px" height="23px" viewBox="0 0 18 23" version="1.1" xmlns="http://www.w3.org/2000/svg" xmlns:xlink="http://www.w3.org/1999/xlink">
    <!-- Generator: sketchtool 48.2 (47327) - http://www.bohemiancoding.com/sketch -->
    <title>E51C176F-7CD3-44EB-B871-AD989649C5AE</title>
    <desc>Created with sketchtool.</desc>
    <defs></defs>
    <g id="expand-meeting" stroke="none" stroke-width="1" fill="none" fill-rule="evenodd" transform="translate(-42.000000, -539.000000)">
        <path d="M42,554 L42,562 L44,562 L44,559 L56,559 L56,562 L60,558 L56,554 L56,557 L44,557 L44,554 M49,543 L49,546.69 L52.19,548.53 L52.94,547.23 L50.5,545.82 L50.5,543 M50,541.15 C52.67,541.15 54.85,543.32 54.85,546 C54.85,548.68 52.67,550.85 50,550.85 C47.321,550.85 45.15,548.679 45.15,546 C45.15,543.321 47.321,541.15 50,541.15 M50,539 C46.14,539 43,542.14 43,546 C43,549.866 46.134,553 50,553 C53.86,553 57,549.87 57,546 C57,542.14 53.86,539 50,539" id="extend" fill="#FFFFFF"></path>
    </g>
</svg>