<?xml version="1.0" encoding="UTF-8"?>
<svg width="16px" height="10px" viewBox="0 0 16 10" version="1.1" xmlns="http://www.w3.org/2000/svg" xmlns:xlink="http://www.w3.org/1999/xlink">
    <!-- Generator: sketchtool 48.2 (47327) - http://www.bohemiancoding.com/sketch -->
    <title>D7034AC4-94BE-42E1-9A28-4A476225C331</title>
    <desc>Created with sketchtool.</desc>
    <defs></defs>
    <g id="free" stroke="none" stroke-width="1" fill="none" fill-rule="evenodd" transform="translate(-122.000000, -81.000000)">
        <path d="M132.714286,85.2857143 C133.897857,85.2857143 134.857143,84.3264286 134.857143,83.1428571 C134.857143,81.9592857 133.897857,81 132.714286,81 C131.530714,81 130.571429,81.9592857 130.571429,83.1428571 C130.571429,84.3264286 131.530714,85.2857143 132.714286,85.2857143 M127,85.2857143 C128.183571,85.2857143 129.142857,84.3264286 129.142857,83.1428571 C129.142857,81.9592857 128.183571,81 127,81 C125.816429,81 124.857143,81.9592857 124.857143,83.1428571 C124.857143,84.3264286 125.816429,85.2857143 127,85.2857143 M127,86.7142857 C125.335714,86.7142857 122,87.55 122,89.2142857 L122,91 L132,91 L132,89.2142857 C132,87.55 128.664286,86.7142857 127,86.7142857 M132.695465,86.7142857 C132.487543,86.7142857 132.250941,86.7142857 132,86.75 C132.83169,87.35 133.41244,88.1428571 133.41244,89.2142857 L133.41244,91 L137.714286,91 L137.714286,89.2142857 C137.714286,87.55 134.366015,86.7142857 132.695465,86.7142857" id="persons" fill="#FFFFFF"></path>
    </g>
</svg>